<?xml version="1.0" encoding="UTF-8"?>
<svg xmlns="http://www.w3.org/2000/svg" version="1.2" baseProfile="tiny-ps" viewBox="0 0 1050 1050"><title>Mont Blac ECS</title>
    <path style="fill:#000000" d="M -254.42945,338.79754 V -21.202453 h 640 639.99995 v 359.999993 360 h -639.99995 -640 z m 362,284 c 0,-1.88406 -0.66667,-2 -11.5,-2 h -11.5 v -6.48095 c 0,-6.07312 0.15678,-6.5203 2.49149,-7.10627 1.37032,-0.34393 6.09532,-0.46166 10.5,-0.26164 7.11132,0.32294 8.00851,0.16681 8.00851,-1.39373 0,-1.56497 -1.14979,-1.75741 -10.5,-1.75741 h -10.5 v -6.48095 c 0,-6.0652 0.1591,-6.52088 2.48017,-7.10343 1.36409,-0.34236 6.31416,-0.46344 11.00014,-0.26905 7.58228,0.31453 8.51996,0.16083 8.51983,-1.39657 -1.3e-4,-1.58024 -1.30972,-1.75 -13.50014,-1.75 -12.98079,0 -14.72995,0.37005 -12.46328,2.63672 0.62237,0.62237 1.04356,7.06596 1.05385,16.12224 0.0143,12.56842 0.2831,15.30708 1.61112,16.41329 0.98867,0.82353 5.62019,1.54301 12.19615,1.8946 5.83119,0.31177 10.93966,0.64927 11.35216,0.75 0.4125,0.10073 0.75,-0.71685 0.75,-1.81685 z m 30.54679,-4.59158 c -2.53431,-3.62537 -4.70661,-6.9417 -4.82732,-7.36962 -0.12071,-0.42792 1.91558,-3.76171 4.52508,-7.40842 l 4.74455,-6.63038 h -2.93241 c -2.33003,0 -3.59628,0.92441 -6.16407,4.5 -1.77741,2.475 -3.35876,4.5 -3.5141,4.5 -0.15534,0 -1.67568,-2.025 -3.37852,-4.5 -2.39797,-3.48533 -3.71397,-4.5 -5.83637,-4.5 -2.6881,0 -2.63958,0.1082 2.54805,5.68235 5.88583,6.32437 7.13591,10.9039 3.13865,11.4981 -1.18232,0.17575 -3.02823,1.50086 -4.10202,2.94467 -1.65289,2.22248 -1.76316,2.97861 -0.71896,4.92972 l 1.23338,2.3046 2.11864,-2.8704 c 1.16525,-1.57872 2.35604,-3.76373 2.64621,-4.85558 1.12126,-4.21907 3.22757,-3.14467 9.26505,4.72598 1.53595,2.00231 3.48324,3.64056 4.32732,3.64056 1.06876,0 0.13577,-2.00117 -3.07316,-6.59158 z m 102.45321,-7.40842 v -14 h -2.60699 c -2.11498,0 -2.45896,0.33027 -1.82263,1.75 1.39665,3.11609 1.66071,11.2752 0.51248,15.83522 -1.00935,4.00848 -0.90237,4.7399 1.08685,7.43046 1.21352,1.64138 2.34678,2.98432 2.51835,2.98432 0.17157,0 0.31194,-6.3 0.31194,-14 z m 23.98469,13.25 c -0.0272,-1.33211 -1.44062,-2.87962 -3.23469,-3.54156 -1.4991,-0.5531 -1.75,-2.01218 -1.75,-10.17706 0,-8.86471 0.13989,-9.53138 2,-9.53138 1.33333,0 2,-0.66667 2,-2 0,-1.33333 -0.66667,-2 -2,-2 -1.7037,0 -2,-0.66667 -2,-4.5 0,-4.80106 -0.17151,-5.01376 -2.87575,-3.56649 -1.49101,0.79796 -1.63892,1.77804 -1.01865,6.75 0.3991,3.19907 0.76361,9.84187 0.81002,14.76177 0.0782,8.28844 0.28169,9.15123 2.77147,11.75 2.52661,2.63722 5.3317,3.72519 5.2976,2.05472 z m 14.01531,-13.25 v -14 h -2.60699 c -2.1246,0 -2.45718,0.32381 -1.79738,1.75 0.44528,0.9625 1.05593,6.7 1.35699,12.75 0.48716,9.78987 1.20346,13.5 2.6064,13.5 0.24254,0 0.44098,-6.3 0.44098,-14 z m 122.39054,12.623 c 4.91896,-1.29623 7.64537,-3.81862 9.0502,-8.373 0.3951,-1.28087 0.26951,-2.25 -0.29156,-2.25 -0.54208,0 -1.6331,-0.24847 -2.42447,-0.55215 -0.93971,-0.36059 -1.88233,0.51845 -2.71715,2.5339 -4.6056,11.1189 -18.66098,8.18066 -20.53138,-4.29203 -1.2028,-8.02087 0.19966,-13.60086 4.49901,-17.9002 5.36668,-5.36669 9.7433,-5.30632 15.2601,0.21048 5.69782,5.69782 7.4439,5.45306 3.74895,-0.5255 -3.90615,-6.32028 -11.9683,-8.11291 -19.68546,-4.37709 -5.43309,2.63011 -6.33721,4.34101 -6.99876,13.24383 -0.85862,11.5551 1.98704,18.57972 8.90851,21.991 3.93172,1.93777 4.84204,1.96144 11.18201,0.29076 z m 45.21645,-0.20479 c -0.33385,-0.86998 -0.60699,-6.22013 -0.60699,-11.88921 0,-8.46427 -0.3243,-10.70793 -1.81357,-12.54709 -2.41247,-2.97928 -10.26525,-3.81147 -15.46497,-1.63889 -4.12445,1.72331 -4.67009,3.07892 -1.84733,4.58962 1.44443,0.77303 2.28246,0.55181 3.65499,-0.96482 3.37119,-3.72512 11.47088,-1.93713 11.47088,2.53218 0,2.90459 -1.86523,4.00699 -8.38032,4.953 -5.6743,0.82392 -9.57106,2.40808 -9.73483,3.95752 -1.01147,9.56951 8.41353,14.87532 15.49194,8.7212 1.76021,-1.53036 2.00528,-1.4609 3.94525,1.11828 2.25056,2.9921 4.25891,3.70632 3.28495,1.16821 z m -18.40699,-3.61821 c -1.71332,-1.71332 -1.48249,-4.24218 0.55,-6.02538 1.9635,-1.72268 11.8633,-4.82799 12.7058,-3.98548 0.29931,0.2993 0.5442,2.00749 0.5442,3.79597 0,2.61335 -0.66124,3.66044 -3.36803,5.33333 -3.73982,2.31133 -8.59215,2.72138 -10.43197,0.88156 z m 37.50761,-18.95359 c 1.87137,-1.87007 2.58203,-2.03547 4.66593,-1.08598 2.02099,0.92082 2.56826,0.83361 3.07627,-0.49022 1.25416,-3.2683 -5.27618,-4.48098 -9.2273,-1.71351 -1.24574,0.87255 -2.22251,1.0923 -2.22251,0.5 0,-0.58118 -0.9,-1.0567 -2,-1.0567 -2.10908,0 -2.69104,1.45488 -1,2.5 0.564,0.34857 1,5.19896 1,11.12476 0,6.57377 0.46791,11.32435 1.25,12.69098 1.07208,1.87336 1.32117,0.58671 1.75,-9.0395 0.43946,-9.86468 0.76732,-11.49089 2.70761,-13.42983 z m 55.87551,23.02834 c 8.15747,-2.05407 10.99945,-9.65209 5.88415,-15.73127 -2.46852,-2.93368 -4.52044,-3.88604 -13.17227,-6.11366 -7.5499,-1.9439 -9.4066,-6.16835 -4.64898,-10.57757 4.28782,-3.97381 9.36863,-3.4017 14.87632,1.67511 4.69488,4.32758 5.80237,3.5574 2.55132,-1.77427 -2.32949,-3.8203 -7.59179,-5.78022 -13.67781,-5.09424 -6.88596,0.77615 -9.39585,2.94732 -9.39585,8.12784 0,5.77481 2.83652,8.52285 11.76571,11.39869 8.59588,2.76849 10.78727,4.93205 10.34594,10.21462 -0.17996,2.15413 -6.25207,6 -9.47319,6 -4.40315,0 -8.37921,-2.64107 -9.77115,-6.49042 -0.97386,-2.69313 -1.83069,-3.50958 -3.68321,-3.50958 -2.39052,0 -2.39704,0.0269 -0.66676,2.75 2.89469,4.55568 5.8176,7.43163 8.98266,8.83836 3.73203,1.65871 4.54182,1.68171 10.08312,0.28639 z m 63.12449,-23.02834 c 1.87137,-1.87007 2.58203,-2.03547 4.66593,-1.08598 2.02099,0.92082 2.56826,0.83361 3.07627,-0.49022 1.25416,-3.2683 -5.27618,-4.48098 -9.2273,-1.71351 -1.24574,0.87255 -2.22251,1.0923 -2.22251,0.5 0,-0.58118 -0.9,-1.0567 -2,-1.0567 -2.10908,0 -2.69104,1.45488 -1,2.5 0.564,0.34857 1,5.19896 1,11.12476 0,6.57377 0.46791,11.32435 1.25,12.69098 1.07208,1.87336 1.32117,0.58671 1.75,-9.0395 0.43946,-9.86468 0.76732,-11.49089 2.70761,-13.42983 z m 53.29239,10.15359 v -14 h -2.60699 c -2.1246,0 -2.45718,0.32381 -1.79738,1.75 0.44528,0.9625 1.05593,6.7 1.35699,12.75 0.48716,9.78987 1.20346,13.5 2.6064,13.5 0.24254,0 0.44098,-6.3 0.44098,-14 z m -464.13766,9.21502 2.36234,-2.58776 -2.23536,-0.82691 c -1.74569,-0.64578 -2.74559,-0.27637 -4.56459,1.68637 -2.42703,2.61881 -6.19208,3.24334 -9.35332,1.5515 -1.92034,-1.02774 -4.72009,-6.72288 -3.77138,-7.67159 0.31308,-0.31307 3.18661,-0.87784 6.38563,-1.25504 3.19902,-0.37719 6.36572,-1.02531 7.03712,-1.44026 0.6714,-0.41495 2.35844,-0.009 3.74897,0.90212 2.4848,1.6281 2.52825,1.61108 2.52825,-0.99056 0,-3.62117 -2.26391,-8.67268 -4.96697,-11.08289 -3.4494,-3.0757 -12.01228,-2.80048 -15.5566,0.5 -2.5921,2.41377 -2.66186,2.7587 -2.02265,10 0.36413,4.125 1.34496,8.5485 2.17962,9.83001 3.58258,5.50059 13.76558,6.27428 18.22894,1.38501 z m -17.86234,-13.79194 c 0,-2.31229 5.5003,-7.42308 7.98882,-7.42308 4.51434,0 8.65581,4.15655 7.40061,7.42756 -0.88871,2.31593 -15.38943,2.31171 -15.38943,-0.004 z m 49.49201,16.10952 c 1.09561,-0.10845 2.85042,-1.66699 3.8996,-3.46342 1.59696,-2.73438 1.67968,-3.41053 0.50799,-4.1524 -2.28939,-1.44953 -3.29304,-1.00974 -5.41264,2.37174 -2.49743,3.98424 -6.9627,4.76634 -10.56387,1.85028 -2.12614,-1.72164 -2.42309,-2.7801 -2.42309,-8.63703 0,-6.0738 0.25268,-6.89229 2.80576,-9.08835 3.5859,-3.08446 6.77452,-3.05819 10.51187,0.0866 4.33388,3.64672 6.26351,3.38864 4.15273,-0.55539 -2.84822,-5.32193 -13.69979,-6.42633 -18.53263,-1.88612 -2.1053,1.97784 -2.43722,3.18684 -2.43399,8.86582 0.003,4.828 0.53954,7.45451 2.01969,9.88224 2.35667,3.86539 7.42032,6.42194 10.97657,5.54189 1.375,-0.34026 3.3964,-0.70739 4.49201,-0.81584 z m 27.95129,-0.75511 c 2.12293,-3.03091 1.96359,-4.4557 -0.27204,-2.43248 -1.00581,0.91025 -2.65787,1.65499 -3.67126,1.65499 -1.01339,0 -2.66545,-0.74474 -3.67126,-1.65499 -1.54715,-1.40015 -1.82874,-3.24791 -1.82874,-12 v -10.34501 h -2.60699 c -2.11974,0 -2.45806,0.32708 -1.81015,1.75 0.43826,0.9625 1.04891,5.84554 1.35699,10.85119 0.57701,9.3752 1.59572,11.85442 5.52543,13.44729 3.4408,1.39469 5.35513,1.04601 6.97802,-1.27099 z m 76.94065,-10.04651 c 2.13618,-6.72704 4.09772,-12.8281 4.35898,-13.55792 0.33883,-0.94649 -0.34468,-1.2332 -2.38395,-1 -2.29349,0.26227 -2.8603,0.82143 -2.86565,2.82694 -0.0104,3.90077 -2.66384,12.1282 -4.08767,12.67458 -0.7059,0.27087 -1.60332,1.91741 -1.99428,3.65896 -0.65022,2.89647 -1.02445,2.22853 -4.38887,-7.83354 -3.40945,-10.19672 -3.8794,-11.02371 -6.43539,-11.32464 l -2.75736,-0.32463 2.00583,2.82463 c 1.1032,1.55355 3.054,6.17223 4.33511,10.26372 2.15913,6.89561 7.00262,14.09463 9.44738,14.0419 0.48505,-0.0105 2.6297,-5.52296 4.76587,-12.25 z m 35.47839,8.48404 2.36234,-2.58776 -2.23536,-0.82691 c -1.74569,-0.64578 -2.74559,-0.27637 -4.56459,1.68637 -2.42703,2.61881 -6.19208,3.24334 -9.35332,1.5515 -1.92034,-1.02774 -4.72009,-6.72288 -3.77138,-7.67159 0.31308,-0.31307 3.18661,-0.87784 6.38563,-1.25504 3.19902,-0.37719 6.36572,-1.02531 7.03712,-1.44026 0.6714,-0.41495 2.35844,-0.009 3.74897,0.90212 2.4848,1.6281 2.52825,1.61108 2.52825,-0.99056 0,-3.62117 -2.26391,-8.67268 -4.96697,-11.08289 -3.4494,-3.0757 -12.01228,-2.80048 -15.5566,0.5 -2.5921,2.41377 -2.66186,2.7587 -2.02265,10 0.36413,4.125 1.34496,8.5485 2.17962,9.83001 3.58258,5.50059 13.76558,6.27428 18.22894,1.38501 z m -17.86234,-13.79194 c 0,-2.31229 5.5003,-7.42308 7.98882,-7.42308 4.51434,0 8.65581,4.15655 7.40061,7.42756 -0.88871,2.31593 -15.38943,2.31171 -15.38943,-0.004 z m 235.86234,13.79194 2.36234,-2.58776 -2.23536,-0.82691 c -1.74569,-0.64578 -2.74559,-0.27637 -4.56459,1.68637 -2.42703,2.61881 -6.19208,3.24334 -9.35332,1.5515 -1.92034,-1.02774 -4.72009,-6.72288 -3.77138,-7.67159 0.31308,-0.31307 3.18661,-0.87784 6.38563,-1.25504 3.19902,-0.37719 6.36572,-1.02531 7.03712,-1.44026 0.6714,-0.41495 2.35844,-0.009 3.74897,0.90212 2.4848,1.6281 2.52825,1.61108 2.52825,-0.99056 0,-3.62117 -2.26391,-8.67268 -4.96697,-11.08289 -3.4494,-3.0757 -12.01228,-2.80048 -15.5566,0.5 -2.5921,2.41377 -2.66186,2.7587 -2.02265,10 0.36413,4.125 1.34496,8.5485 2.17962,9.83001 3.58258,5.50059 13.76558,6.27428 18.22894,1.38501 z m -17.86234,-13.79194 c 0,-2.31229 5.5003,-7.42308 7.98882,-7.42308 4.51434,0 8.65581,4.15655 7.40061,7.42756 -0.88871,2.31593 -15.38943,2.31171 -15.38943,-0.004 z m 73.38395,5.3079 c 2.13618,-6.72704 4.09772,-12.8281 4.35898,-13.55792 0.33883,-0.94649 -0.34468,-1.2332 -2.38395,-1 -2.17413,0.24862 -2.80804,0.80602 -2.64633,2.32694 0.29288,2.75448 -2.64501,11.76446 -4.25906,13.06177 -0.72655,0.58397 -1.65186,2.38001 -2.05624,3.9912 -0.65556,2.61195 -1.13177,1.73826 -4.39406,-8.06177 -3.39306,-10.19285 -3.85911,-11.01478 -6.41617,-11.31584 l -2.75736,-0.32463 2.00583,2.82463 c 1.1032,1.55355 3.054,6.17223 4.33511,10.26372 2.15913,6.89561 7.00262,14.09463 9.44738,14.0419 0.48505,-0.0105 2.6297,-5.52296 4.76587,-12.25 z m 49.10806,10.80162 c 1.09561,-0.10845 2.85042,-1.66699 3.8996,-3.46342 1.59696,-2.73438 1.67968,-3.41053 0.50799,-4.1524 -2.28939,-1.44953 -3.29304,-1.00974 -5.41264,2.37174 -2.49743,3.98424 -6.9627,4.76634 -10.56387,1.85028 -2.12614,-1.72164 -2.42309,-2.7801 -2.42309,-8.63703 0,-6.0738 0.25268,-6.89229 2.80576,-9.08835 3.5859,-3.08446 6.77452,-3.05819 10.51187,0.0866 4.33388,3.64672 6.26351,3.38864 4.15273,-0.55539 -2.84822,-5.32193 -13.69979,-6.42633 -18.53263,-1.88612 -2.1053,1.97784 -2.43722,3.18684 -2.43399,8.86582 0.003,4.828 0.53954,7.45451 2.01969,9.88224 2.35667,3.86539 7.42032,6.42194 10.97657,5.54189 1.375,-0.34026 3.3964,-0.70739 4.49201,-0.81584 z m 35.37033,-2.31758 2.36234,-2.58776 -2.23536,-0.82691 c -1.74569,-0.64578 -2.74559,-0.27637 -4.56459,1.68637 -2.42703,2.61881 -6.19208,3.24334 -9.35332,1.5515 -1.92034,-1.02774 -4.72009,-6.72288 -3.77138,-7.67159 0.31308,-0.31307 3.18661,-0.87784 6.38563,-1.25504 3.19902,-0.37719 6.36572,-1.02531 7.03712,-1.44026 0.6714,-0.41495 2.35844,-0.009 3.74897,0.90212 2.4848,1.6281 2.52825,1.61108 2.52825,-0.99056 0,-3.62117 -2.26391,-8.67268 -4.96697,-11.08289 -3.4494,-3.0757 -12.01228,-2.80048 -15.5566,0.5 -2.5921,2.41377 -2.66186,2.7587 -2.02265,10 0.36413,4.125 1.34496,8.5485 2.17962,9.83001 3.58258,5.50059 13.76558,6.27428 18.22894,1.38501 z m -17.86234,-13.79194 c 0,-2.31229 5.5003,-7.42308 7.98882,-7.42308 4.51434,0 8.65581,4.15655 7.40061,7.42756 -0.88871,2.31593 -15.38943,2.31171 -15.38943,-0.004 z M 278.23722,587.13087 c -0.27222,-0.27221 -1.54608,-0.34607 -2.83081,-0.16413 l -2.33586,0.3308 2.5,2.5 2.5,2.5 0.3308,-2.33586 c 0.18194,-1.28473 0.10808,-2.55859 -0.16413,-2.83081 z m 359,0 c -0.27222,-0.27221 -1.54608,-0.34607 -2.83081,-0.16413 l -2.33586,0.3308 2.5,2.5 2.5,2.5 0.3308,-2.33586 c 0.18194,-1.28473 0.10808,-2.55859 -0.16413,-2.83081 z m -39.41667,-18.08332 c -113.4375,-0.14012 -299.0625,-0.14012 -412.5,0 -113.4375,0.14013 -20.625,0.25478 206.25,0.25478 226.875,0 319.6875,-0.11465 206.25,-0.25478 z m -619.557008,-4.98098 c -0.25354,-0.97297 -0.47766,-0.41903 -0.49804,1.23097 -0.0204,1.65 0.18706,2.44606 0.46099,1.76903 0.27392,-0.67703 0.29059,-2.02703 0.0371,-3 z m 825.710808,-1.963 c -1.4628,-1.06969 -76.12705,-1.30603 -412.59493,-1.30603 -225.94488,0 -410.794557,0.3375 -410.777067,0.75 0.0175,0.4125 0.6296,1.5375 1.36025,2.5 1.26138,1.66167 22.0554506,1.75 411.968187,1.75 327.77251,0 410.66726,0.25225 410.77596,1.25 0.075,0.6875 0.3426,0.15021 0.595,-1.19397 0.2989,-1.59225 -0.1637,-2.89913 -1.3274,-3.75 z m -682.7232,-63.05536 c -13.65067,-0.15725 -35.70067,-0.1571 -49,3.4e-4 -13.29933,0.15744 -2.1306,0.28609 24.8194,0.28591 26.95,-1.9e-4 37.83127,-0.129 24.1806,-0.28625 z m 328.64713,-5.1e-4 c -35.29475,-0.14564 -93.34475,-0.14567 -129,-6e-5 -35.65525,0.14561 -6.77773,0.26477 64.17227,0.2648 70.95,3e-5 100.12248,-0.1191 64.82773,-0.26474 z m 246.99113,9.3e-4 c -12.74963,-0.15819 -33.89963,-0.15835 -47,-3.7e-4 -13.10037,0.15799 -2.66886,0.28741 23.18114,0.28761 25.85,2.1e-4 36.56849,-0.12905 23.81886,-0.28724 z M 161.92248,474.22668 c 21.26502,-36.63265 77.33561,-133.10323 90.02358,-154.88737 6.39347,-10.97702 11.62449,-20.49138 11.62449,-21.14301 0,-0.65163 -0.7118,-1.45793 -1.58179,-1.79177 -0.86998,-0.33385 -15.25586,-0.60699 -31.96861,-0.60699 -27.21976,0 -30.32395,0.16386 -29.78353,1.57219 0.33182,0.8647 -0.33277,2.83829 -1.47686,4.38576 -1.89854,2.56791 -17.32364,28.6287 -79.63401,134.54205 -20.72004,35.21931 -24.3713,41.01724 -25.26678,40.12176 -0.21477,-0.21478 22.58032,-39.38572 50.65576,-87.04654 28.07544,-47.66082 51.77482,-88.10036 52.66528,-89.86563 6.57876,-13.04182 -14.24545,21.88826 -83.33861,139.79041 -11.2809,19.25 -21.40662,35.7875 -22.50158,36.75 -1.75725,1.54467 -4.41242,1.7518 -22.63005,1.76531 -13.44689,0.01 -20.1165,0.34686 -19.13922,0.96672 1.69903,1.07765 1.72693,1.22228 1.88465,9.76797 l 0.11535,6.25 44.25,0.011 c 47.64164,0.0118 51.93665,0.25236 51.02601,2.85737 -1.5688,4.48778 2.87591,-2.42261 15.07592,-23.43924 z m 460.09253,17.82086 c -4.46129,-8.07841 -33.11288,-57.72143 -49.60437,-85.94673 -6.4903,-11.1082 -15.12156,-25.9582 -19.18058,-33 -12.86181,-22.31337 -25.24395,-43.63249 -28.34494,-48.80327 -1.64921,-2.75 -5.57057,-9.37695 -8.71413,-14.72656 -3.14356,-5.3496 -6.20919,-10.03163 -6.81251,-10.40451 -1.29101,-0.79788 -1.65558,-1.48802 5.88009,11.13107 10.31892,17.27985 22.89633,38.80959 50.82434,87 9.24357,15.95 20.86446,35.975 25.82419,44.5 4.95973,8.525 13.26633,22.925 18.4591,32 5.19277,9.075 10.53654,18.4125 11.87503,20.75 1.3385,2.3375 2.67839,4.25 2.97754,4.25 0.29915,0 -1.13354,-3.0375 -3.18376,-6.75 z m -574.70942,-8 c -0.206,-2.6125 -0.37454,-0.475 -0.37454,4.75 0,5.225 0.16854,7.3625 0.37454,4.75 0.206,-2.6125 0.206,-6.8875 0,-9.5 z m 458.99399,-4.49039 c -5.18718,-8.94279 -14.98476,-25.93461 -21.77241,-37.75961 -6.78765,-11.825 -17.35033,-30.05 -23.47262,-40.5 -6.12229,-10.45 -12.86826,-22.15 -14.99105,-26 -2.12279,-3.85 -8.80355,-15.55 -14.84613,-26 -6.04258,-10.45 -11.56004,-20.08887 -12.26103,-21.4197 -1.47685,-2.80384 -1.71951,-2.23825 7.10326,-16.55636 6.89804,-11.19453 8.03205,-14.11 5.81865,-14.95936 -0.8092,-0.31052 -22.47197,-0.51238 -48.13949,-0.44858 -25.66751,0.0638 -45.99321,0.32235 -45.16821,0.57456 2.63149,0.80445 17.99276,25.91869 17.99772,29.42458 0.001,0.88833 -0.99967,2.88891 -2.22427,4.44574 -2.14869,2.73162 -4.71713,7.07315 -22.74051,38.43912 -4.58256,7.975 -12.69553,21.925 -18.02883,31 -5.33329,9.075 -11.67852,19.98728 -14.10051,24.24951 -5.73731,10.09659 -19.86998,34.29104 -31.30965,53.60062 -5.00167,8.44256 -9.09395,15.64256 -9.09395,16 0,0.35743 57.01509,0.87487 126.70019,1.14987 101.46999,0.40043 126.95654,0.75638 127.9875,1.7875 3.69446,3.69501 1.02027,-2.41006 -7.45866,-17.02789 z M 353.30555,441.54754 c -0.39445,-1.02939 22.18534,-41.41092 28.61689,-51.17826 1.80503,-2.74122 1.89781,-2.76506 3.66617,-0.94207 3.41871,3.52435 31.10697,50.60212 30.57555,51.98697 -0.74326,1.93692 -62.11762,2.06713 -62.85861,0.13336 z m 65.23623,-0.5 c -19.95813,-33.39987 -34.00166,-55.68894 -34.94885,-55.46875 -0.66543,0.15469 -1.01994,-0.29531 -0.7878,-1 0.5841,-1.77308 4.21447,-2.15594 5.49504,-0.57951 3.54593,4.36517 33.27038,55.0636 33.27038,56.74644 0,2.51156 -1.61233,2.67223 -3.02877,0.30182 z m 302.03387,38.75954 c -1.02288,-1.91127 -2.06685,-2.00954 -21.34915,-2.00954 -14.72358,0 -20.69907,-0.3422 -21.82752,-1.25 -0.85461,-0.6875 -3.49218,-4.85 -5.86127,-9.25 -2.36909,-4.4 -5.86781,-10.46805 -7.77493,-13.48457 -3.39794,-5.37457 -29.39813,-50.32555 -45.70346,-79.01543 -4.53244,-7.975 -13.3978,-23.5 -19.7008,-34.5 -6.303,-11 -14.06746,-24.67117 -17.25435,-30.38037 -3.1869,-5.7092 -6.63569,-11.2217 -7.66399,-12.25 -1.74421,-1.74421 -3.90989,-1.86963 -32.2843,-1.86963 h -30.41466 l 2.96076,3.34423 c 1.62842,1.83933 6.58633,9.60183 11.01759,17.25 4.43125,7.64818 12.10882,20.88077 17.06126,29.40577 4.95243,8.525 11.71791,20.225 15.03439,26 3.31649,5.775 11.29168,19.5 17.72265,30.5 15.37533,26.29906 40.45628,69.63193 46.99557,81.19519 2.86005,5.05735 5.75065,9.65211 6.42356,10.21057 0.77667,0.64458 17.78935,1.12109 46.58568,1.30482 39.2149,0.2502 45.44119,0.49269 45.94504,1.78942 0.32055,0.825 0.71346,-2.20821 0.87312,-6.74046 0.16096,-4.56922 -0.18885,-9.13574 -0.78519,-10.25 z m -459.42477,5.95801 c 2.70582,-4.46828 5.37563,-8.87641 5.93291,-9.79585 0.55728,-0.91943 2.76134,-4.8217 4.89791,-8.6717 2.13657,-3.85 6.01016,-10.375 8.60798,-14.5 2.59783,-4.125 7.32901,-12.225 10.51374,-18 3.18473,-5.775 7.65301,-13.65 9.92952,-17.5 9.8597,-16.67459 18.56103,-31.53006 22.55072,-38.5 7.68805,-13.43094 15.26707,-26.37171 19.16635,-32.72549 2.10129,-3.42402 3.82054,-6.42927 3.82054,-6.67833 0,-0.24906 1.6296,-3.18846 3.62134,-6.532 l 3.62133,-6.07915 -6.27443,-10.96203 c -3.45093,-6.02911 -7.39716,-11.98824 -8.76938,-13.24251 -2.79548,-2.55518 -2.58295,-2.13661 3.91967,7.71951 5.12776,7.77222 8.88147,14.79316 8.88147,16.6119 0,1.11516 -1.66516,4.11902 -14.3508,25.8881 -2.72429,4.675 -8.18222,14.125 -12.12872,21 -3.94651,6.875 -12.57368,21.725 -19.1715,33 -6.59782,11.275 -13.25857,22.75 -14.80168,25.5 -2.77839,4.95142 -12.4294,21.41112 -27.85125,47.5 -4.38912,7.425 -8.2108,13.90703 -8.49264,14.40451 -0.28183,0.49748 -0.0693,0.63061 0.47241,0.29584 0.54166,-0.33476 3.19869,-4.26452 5.90451,-8.7328 z M 541.53875,274.54754 c -0.0277,-4.58024 -0.20128,-5.02675 -1.36025,-3.5 -1.17155,1.54333 -3.29354,1.75 -17.96819,1.75 h -16.63976 v -19.95031 c 0,-17.94533 0.17587,-20.05275 1.75,-20.96959 1.3264,-0.77256 0.24815,-1.02664 -4.45455,-1.04969 l -6.20454,-0.0304 2.51074,2.51074 2.51074,2.51074 -0.17902,18.48881 c -0.1308,13.50944 0.15636,18.8929 1.06625,19.98926 1.01712,1.22554 4.33932,1.50045 18.13261,1.50045 15.64986,0 17.01283,0.14656 18.5998,2 0.94185,1.1 1.83744,2 1.99021,2 0.15277,0 0.26345,-2.3625 0.24596,-5.25 z m -439.2182,1.1699 c -1.58427,-0.92275 -1.74855,-3.12175 -1.73469,-23.21959 0.008,-12.21017 0.34592,-21.70528 0.75,-21.10025 0.40408,0.60503 1.34248,1.29512 2.08534,1.53355 1.10398,0.35432 9.25049,14.4479 21.28777,36.82817 1.02406,1.90398 1.6092,4.37898 1.30032,5.5 -0.65666,2.38319 4.98116,-7.84176 16.09266,-29.18626 7.35482,-14.12816 8.01456,-15.0643 9.16164,-13 0.8556,1.53976 1.247,8.04868 1.27152,21.14574 0.0388,20.72327 0.53631,22.61166 5.94043,22.54833 2.24521,-0.0263 2.35912,-0.1678 0.84501,-1.04969 -1.59398,-0.92841 -1.75,-3.2838 -1.75,-26.4199 0,-23.1361 0.15602,-25.49149 1.75,-26.4199 1.29238,-0.75274 -0.40958,-1.02723 -6.50847,-1.04969 -8.01139,-0.0295 -8.22111,0.0294 -7.00946,1.96959 1.01289,1.62189 0.98273,2.42538 -0.1595,4.25 -0.77469,1.2375 -5.42484,9.675 -10.33366,18.75 -4.90883,9.075 -9.06373,16.64299 -9.23311,16.81775 -0.16938,0.17477 -5.0577,-8.57796 -10.86293,-19.4505 -7.93879,-14.86844 -10.28765,-20.09034 -9.47647,-21.06775 0.86894,-1.04701 -0.42875,-1.2995 -6.67881,-1.2995 h -7.75731 l 2.67829,2.10674 2.67828,2.10674 -0.14138,23.92277 c -0.15214,25.74335 0.0583,26.88969 4.92697,26.83334 2.26744,-0.0262 2.38772,-0.1701 0.87756,-1.04969 z m 119.36689,-0.0384 c 4.10282,-0.8799 6.19904,-2.10645 9.82689,-5.75 11.82328,-11.8744 8.28493,-30.29497 -7.15028,-37.22416 -4.30739,-1.93368 -6.97007,-2.37636 -14.2935,-2.37636 -10.95851,0 -17.73002,2.58326 -23.0435,8.79087 -3.24229,3.78788 -3.4565,4.48067 -3.4565,11.17882 0,15.91694 10.52063,26.34089 26.70078,26.45543 3.41043,0.0241 8.54768,-0.45943 11.41611,-1.0746 z m -19.61689,-3.03539 c -7.97012,-2.92589 -13.5,-10.64565 -13.5,-18.84611 0,-5.51133 3.26715,-12.35524 7.35237,-15.40149 1.7312,-1.2909 5.56341,-3.13253 8.51604,-4.0925 6.59685,-2.1448 12.50177,-1.51852 18.98788,2.01386 6.13601,3.34171 9.38219,8.19969 9.88599,14.79459 0.36357,4.75941 0.0412,5.71487 -3.92308,11.62678 -2.89947,4.324 -5.62733,7.10719 -8.29888,8.46723 -4.60376,2.3437 -14.51216,3.09262 -19.02032,1.43764 z m 65.25,3.07379 c -1.56302,-0.91037 -1.75,-2.92242 -1.75,-18.83092 v -17.81164 l 2.39679,0.45818 c 1.52253,0.29105 7.1464,5.80312 15.41783,15.11133 18.17538,20.45356 19.95171,22.15848 23.04943,22.12274 2.27317,-0.0262 2.3951,-0.17069 0.88595,-1.04969 -1.57833,-0.91929 -1.75,-3.06951 -1.75,-21.9199 0,-18.85039 0.17167,-21.00061 1.75,-21.9199 1.3264,-0.77256 0.24815,-1.02664 -4.45455,-1.04969 l -6.20454,-0.0304 2.45454,2.45455 c 2.31851,2.3185 2.45371,3.0806 2.43937,13.75 -0.008,6.2125 -0.58874,13.21282 -1.28975,15.55626 l -1.27458,4.26082 -13.51778,-15.26082 c -7.43478,-8.39344 -13.86814,-15.84302 -14.29634,-16.55461 -0.4282,-0.7116 -0.23471,-1.9491 0.42998,-2.75 1.04151,-1.25494 0.0673,-1.4562 -7.04876,-1.4562 h -8.25731 l 2.68417,2.11137 2.68418,2.11137 -0.16403,19.39794 c -0.17715,20.94978 0.14423,22.40439 4.93784,22.34891 2.26744,-0.0262 2.38772,-0.1701 0.87756,-1.04969 z m 85,0 c -1.57354,-0.9165 -1.75,-3.01831 -1.75,-20.84459 v -19.82531 l 3.125,-0.625 c 1.71875,-0.34375 5.52622,-0.625 8.46104,-0.625 4.20154,0 5.76956,0.46532 7.375,2.18856 l 2.03896,2.18856 -0.0318,-5.43856 c -0.0277,-4.73708 -0.20315,-5.21284 -1.36025,-3.68856 -1.19196,1.57022 -3.51448,1.75 -22.60795,1.75 -19.09347,0 -21.41599,-0.17978 -22.60795,-1.75 -1.20989,-1.59382 -1.33128,-1.50985 -1.36025,0.94098 -0.0175,1.48004 0.5307,3.04506 1.2182,3.47781 0.6875,0.43276 5.20996,0.64786 10.04992,0.478 5.99816,-0.2105 9.28168,0.091 10.31308,0.94699 1.26745,1.05189 1.47808,4.30666 1.29711,20.04423 -0.23412,20.35935 0.11328,21.8877 4.96233,21.83158 2.26744,-0.0262 2.38772,-0.1701 0.87756,-1.04969 z m 210.0577,-0.85621 c -0.99773,-1.59762 -0.79823,-2.81384 1.14059,-6.95328 2.72133,-5.81015 2.88668,-5.8696 17.55171,-6.31006 l 10,-0.30035 3.17908,6.46156 c 3.52584,7.16635 5.46584,9.05314 9.26205,9.00803 2.33936,-0.0278 2.39705,-0.12439 0.67253,-1.12599 -1.03748,-0.60257 -6.34427,-10.30704 -11.79285,-21.56549 -7.85444,-16.22971 -9.66513,-20.76077 -8.74122,-21.87401 0.98285,-1.18427 0.011,-1.39934 -6.20715,-1.37369 -5.24866,0.0217 -6.89381,0.30976 -5.71095,1.00016 0.91382,0.53336 1.54365,1.53218 1.39962,2.21959 -0.14404,0.68741 -4.41082,9.7893 -9.48175,20.22642 -5.07092,10.43712 -8.80206,19.11585 -8.29142,19.28607 0.51064,0.17021 1.77975,0.95394 2.82025,1.74161 1.0405,0.78767 2.68312,1.44644 3.65028,1.46394 1.49017,0.0269 1.57397,-0.26364 0.54923,-1.90451 z m 6.19073,-16.81369 c -8.7e-4,-0.4125 2.08406,-5.10038 4.63317,-10.41751 3.40021,-7.09243 5.02829,-9.5165 6.11225,-9.10054 1.99822,0.76679 8.25615,14.0236 8.25615,17.48984 v 2.77821 h -9.5 c -5.225,0 -9.50071,-0.3375 -9.50157,-0.75 z m 97.48979,14.84356 c 3.45789,-1.95151 6.07516,-2.8146 7.21211,-2.37831 1.22624,0.47055 0.74382,-0.62926 -1.54191,-3.51522 -3.26128,-4.11772 -5.62055,-5.56789 -4.55938,-2.80253 0.31585,0.8231 -0.85558,2.45913 -2.85005,3.98039 -19.39194,14.79095 -46.63452,-2.4571 -36.60488,-23.17558 4.05102,-8.3683 16.77312,-13.71905 27.0039,-11.3575 6.99351,1.61429 11.89161,4.08808 12.76404,6.44648 0.65791,1.7785 0.94106,1.62284 2.80999,-1.54475 l 2.07835,-3.52254 -2.1502,-0.0266 c -1.1826,-0.0146 -5.52519,-1.2428 -9.65019,-2.72926 -6.5328,-2.35413 -8.518,-2.63398 -15.39393,-2.17009 -9.44554,0.63725 -17.28453,4.18612 -21.90384,9.9163 -2.71799,3.37164 -2.97994,4.34042 -2.83904,10.5 0.21053,9.20361 3.78119,16.32935 10.49531,20.94483 6.736,4.63053 9.75999,5.35563 20.42184,4.89684 8.09271,-0.34823 9.97491,-0.79133 14.70788,-3.46245 z m -200.51658,1.95663 c 7.80149,-1.50512 12.21679,-8.90177 10.56611,-17.70065 -0.66836,-3.56268 -4.59836,-8.53641 -7.51263,-9.50783 -1.07108,-0.35703 -0.58022,-1.26742 1.85793,-3.44591 6.38549,-5.70543 4.83877,-15.76901 -3.08883,-20.09725 -2.84409,-1.55279 -6.43337,-1.84223 -26.26767,-2.11823 l -22.97344,-0.31969 2.72344,2.14227 2.72345,2.14226 v 23.87773 c 0,21.68573 0.16065,23.9713 1.75,24.89701 2.13601,1.24411 33.91483,1.34705 40.22164,0.13029 z m -36.97164,-13.92519 v -11.875 l 3.125,-0.625 c 1.71875,-0.34375 9.53306,-0.625 17.36514,-0.625 12.92664,0 14.48502,0.19262 16.89498,2.0883 4.98965,3.92485 7.19052,11.1932 4.27282,14.11091 -0.73814,0.73813 -1.89936,2.38337 -2.5805,3.65608 -2.2329,4.17222 -6.6836,5.14471 -23.54532,5.14471 h -15.53212 z m 0,-25.56373 v -9.43872 l 4.43962,-0.66577 c 2.44179,-0.36617 10.05916,-0.50624 16.92749,-0.31127 13.98691,0.39704 17.30463,1.72753 18.99369,7.61691 0.73543,2.5643 0.44409,3.62683 -1.8018,6.57134 -1.47349,1.93185 -4.06921,3.99705 -5.76826,4.58934 -1.69905,0.5923 -9.77204,1.0769 -17.93996,1.0769 H 428.57055 Z M 320.8882,202.04883 c -11.65029,-0.15987 -31.00029,-0.16007 -43,-4.3e-4 -11.99971,0.15963 -2.46765,0.29043 21.18235,0.29066 23.65,2.4e-4 33.46794,-0.13037 21.81765,-0.29023 z m 172.43235,-2.5e-4 c -11.9625,-0.15952 -31.5375,-0.15952 -43.5,0 -11.9625,0.15953 -2.175,0.29005 21.75,0.29005 23.925,0 33.7125,-0.13052 21.75,-0.29005 z m -150.43662,-4.00104 c -0.34312,-0.9625 -1.01018,-2.25356 -1.48236,-2.86903 -0.47218,-0.61546 -9.58824,-16.34107 -20.2579,-34.94579 -11.17197,-19.4806 -20.17842,-34.11267 -21.23626,-34.5009 -3.32956,-1.22195 -5.94323,0.72321 -8.28443,6.16547 -1.84587,4.29085 -13.61417,25.23221 -35.06671,62.40025 -1.26979,2.2 -1.63315,3.325 -0.80746,2.5 1.58159,-1.58026 10.98008,-17.39004 22.29275,-37.5 3.71277,-6.6 8.20714,-14.475 9.98749,-17.5 1.78036,-3.025 4.09302,-7.63581 5.13925,-10.24625 1.04624,-2.61044 2.46475,-4.74794 3.15225,-4.75 1.91564,-0.006 1.48117,2.0221 -1.60606,7.49625 -7.39464,13.11183 -19.65447,34.46477 -22.10484,38.5 -6.38983,10.52264 -14.0391,23.80625 -14.0391,24.3801 0,0.34094 17.6625,0.65153 39.25,0.69019 21.5875,0.0386 40.15,0.45702 41.25,0.92971 3.26138,1.40146 4.49393,1.15905 3.81338,-0.75 z m 172.68662,0.77178 c 0,-0.53802 -3.14923,-6.27552 -6.9983,-12.75 -3.84906,-6.47448 -13.18991,-22.79678 -20.75744,-36.27178 -11.10518,-19.77426 -14.20233,-24.56303 -16.05675,-24.82676 -3.15833,-0.44918 -5.11437,1.43169 -7.80476,7.50479 -1.26163,2.84791 -4.93855,9.82291 -8.17094,15.5 -6.88713,12.09594 -23.95896,41.66489 -27.17732,47.07197 -1.22762,2.0625 -1.957,3.75 -1.62084,3.75 0.69953,0 5.97131,-8.12899 10.05198,-15.5 1.52243,-2.75 8.26271,-14.675 14.9784,-26.5 6.7157,-11.825 12.81354,-23.075 13.55076,-25 1.65181,-4.31313 2.98473,-6.13069 4.02464,-5.48799 1.1147,0.68892 0.0283,4.37045 -2.50481,8.48799 -1.18426,1.925 -6.11977,10.475 -10.96781,19 -12.19238,21.4396 -19.38386,33.83666 -22.17621,38.22856 -1.30383,2.05071 -2.3706,4.18821 -2.3706,4.75 0,0.67671 13.24663,1.04516 39.25,1.09173 21.5875,0.0386 40.15,0.45702 41.25,0.92971 2.72057,1.16907 3.5,1.17392 3.5,0.0218 z m 283.5,-131.021773 c 1.1196,-0.481094 -178.48903,-0.859429 -408,-0.859429 -229.51097,0 -409.119567,0.378335 -407.999997,0.859429 1.10432,0.474544 183.822357,0.859429 407.999997,0.859429 224.17764,0 406.8957,-0.384885 408,-0.859429 z m 3.5,-4.339485 c 0,-1.536555 -0.8742,-2.737783 -2.5471,-3.5 -3.0754,-1.401266 -814.694867,-1.560538 -817.952897,-0.160515 -1.56169,0.671083 -1.63993,0.874833 -0.35699,0.929715 0.90366,0.03866 1.90203,0.745285 2.21862,1.570285 0.51034,1.329942 46.828347,1.5 408.547967,1.5 270.90289,0 408.18,0.335977 408.5904,1 0.9968,1.612835 1.5,1.163471 1.5,-1.339485 z" id="path1"/>
  </svg>